<svg xmlns="http://www.w3.org/2000/svg" viewBox="0 0 40 40" role="img" focusable="false"><title>Facebook</title><path d="M33.334 20a13.333 13.333 0 10-15.417 13.167v-9.312h-3.385V20h3.385v-2.933c0-3.342 1.991-5.187 5.036-5.187a20.5 20.5 0 012.985.26v3.277h-1.681a1.927 1.927 0 00-2.173 2.082v2.5h3.7l-.591 3.854h-3.109v9.314A13.337 13.337 0 0033.334 20z" fill="#fff"></path><path d="M25.19 23.854L25.781 20h-3.7v-2.5a1.927 1.927 0 012.173-2.082h1.681v-3.283a20.5 20.5 0 00-2.985-.26c-3.046 0-5.036 1.846-5.036 5.188v2.938h-3.383v3.854h3.385v9.32a13.473 13.473 0 004.167 0v-9.317z" fill="#04ddb2"></path></svg>