<svg xmlns="http://www.w3.org/2000/svg" viewBox="0 0 40 40" role="img" focusable="false"><title>Twitter</title><path d="M15.362 30.159a14.5 14.5 0 0014.594-14.594c0-.222 0-.443-.015-.663a10.436 10.436 0 002.559-2.655 10.238 10.238 0 01-2.946.807 5.147 5.147 0 002.255-2.837 10.279 10.279 0 01-3.257 1.245 5.134 5.134 0 00-8.741 4.678A14.562 14.562 0 019.24 10.781a5.133 5.133 0 001.588 6.847 5.091 5.091 0 01-2.328-.642v.065a5.131 5.131 0 004.115 5.028 5.121 5.121 0 01-2.316.088 5.135 5.135 0 004.792 3.562 10.292 10.292 0 01-6.37 2.2 10.441 10.441 0 01-1.221-.074 14.521 14.521 0 007.862 2.3" fill="#fff"></path></svg>