<svg xmlns="http://www.w3.org/2000/svg" viewBox="0 0 40 40" role="img" focusable="false"><title>Youtube</title><path d="M32.776 13.601a3.351 3.351 0 00-2.358-2.373C28.339 10.667 20 10.667 20 10.667s-8.339 0-10.418.561a3.351 3.351 0 00-2.358 2.373 35.146 35.146 0 00-.557 6.46 35.146 35.146 0 00.557 6.46 3.351 3.351 0 002.358 2.373c2.08.561 10.418.561 10.418.561s8.339 0 10.418-.561a3.351 3.351 0 002.358-2.373 35.146 35.146 0 00.557-6.46 35.146 35.146 0 00-.557-6.46z" fill="#fff"></path><path d="M17.273 24.025l6.97-3.961-6.97-3.969z" fill="#04ddb2"></path></svg>